<svg width="36" height="36" viewBox="0 0 36 36" fill="none" xmlns="http://www.w3.org/2000/svg">
<path d="M18 0C8.0595 0 0 8.0595 0 18C0 27.9405 8.0595 36 18 36C27.9405 36 36 27.9405 36 18C36 8.0595 27.9405 0 18 0ZM27 19.5H19.5V27C19.5 27.8295 18.828 28.5 18 28.5C17.172 28.5 16.5 27.8295 16.5 27V19.5H9C8.172 19.5 7.5 18.8295 7.5 18C7.5 17.1705 8.172 16.5 9 16.5H16.5V9C16.5 8.1705 17.172 7.5 18 7.5C18.828 7.5 19.5 8.1705 19.5 9V16.5H27C27.828 16.5 28.5 17.1705 28.5 18C28.5 18.8295 27.828 19.5 27 19.5Z" fill="#ED1B00"/>
</svg>
